<svg xmlns="http://www.w3.org/2000/svg" viewBox="0 0 512 512"><rect width="512" height="512" rx="90" fill="#062033"/><path d="M92 150h135c35 0 57 21 57 56v172c-17-18-37-27-60-27H92z" fill="#f7fbff"/><path d="M420 150H285c-35 0-57 21-57 56v172c17-18 37-27 60-27h132z" fill="#e8f6ff"/><path d="M120 176h90M120 210h95M120 244h72M302 176h90M302 210h88M302 244h68" stroke="#66a9c9" stroke-width="14" stroke-linecap="round"/><path d="M268 279c35-52 94-71 142-38 20 14 28 32 28 32s-8 18-28 32c-48 33-107 14-142-26z" fill="#20c4d8"/><path d="M332 236c17 3 30 13 39 29-12 17-27 28-45 32 11-19 13-40 6-61z" fill="#f9c846"/><circle cx="397" cy="263" r="8" fill="#052033"/><path d="M258 279l-42-34v68z" fill="#1388c9"/></svg>